<?xml version="1.0" standalone="no"?><!DOCTYPE svg PUBLIC "-//W3C//DTD SVG 1.1//EN" "http://www.w3.org/Graphics/SVG/1.1/DTD/svg11.dtd"><svg width="100%" height="100%" viewBox="0 0 460 170" version="1.1" xmlns="http://www.w3.org/2000/svg" xmlns:xlink="http://www.w3.org/1999/xlink" xml:space="preserve" style="fill-rule:evenodd;clip-rule:evenodd;stroke-linecap:round;stroke-linejoin:round;stroke-miterlimit:1.41421;"><g><path d="M74.164,26.592l52.559,30.345l0,60.69l-52.559,30.344l-52.559,-30.344l0,-60.69l52.559,-30.345" style="fill:none;stroke-width:1.2px;stroke:#0025ff;"/><path d="M74.118,37.471c0,0 10.999,6.35 22.001,12.702c13.625,7.867 22.019,22.405 22.019,38.138c0,0.001 0,0.001 0,0.002c0,15.719 -8.386,30.244 -21.999,38.103c-0.037,0.022 -0.074,0.043 -0.111,0.064c-13.558,7.828 -30.262,7.828 -43.82,0c-0.061,-0.035 -0.123,-0.071 -0.184,-0.106c-13.567,-7.833 -21.925,-22.309 -21.925,-37.976c0,0 0,0 0,0c0,-15.787 8.422,-30.375 22.094,-38.268c10.977,-6.338 21.925,-12.659 21.925,-12.659" style="fill:#f2f2f2;fill-rule:nonzero;"/><g><path d="M126.295,54.116c3.675,0 3.675,5.518 0,5.518c-3.675,0 -3.675,-5.518 0,-5.518Z" style="fill:#fff;fill-rule:nonzero;stroke-width:1.09px;stroke-linecap:butt;stroke-linejoin:miter;stroke:#0025ff;"/><path d="M126.588,114.934c3.675,0 3.675,5.517 0,5.517c-3.675,0 -3.675,-5.517 0,-5.517Z" style="fill:#fff;fill-rule:nonzero;stroke-width:1.09px;stroke-linecap:butt;stroke-linejoin:miter;stroke:#0025ff;"/><path d="M21.714,114.22c3.675,0 3.675,5.517 0,5.517c-3.675,0 -3.675,-5.517 0,-5.517Z" style="fill:#fff;fill-rule:nonzero;stroke-width:1.09px;stroke-linecap:butt;stroke-linejoin:miter;stroke:#0025ff;"/><path d="M21.417,54.446c3.675,0 3.675,5.518 0,5.518c-3.675,0 -3.675,-5.518 0,-5.518Z" style="fill:#fff;fill-rule:nonzero;stroke-width:1.09px;stroke-linecap:butt;stroke-linejoin:miter;stroke:#0025ff;"/><path d="M73.98,24.87c3.674,0 3.674,5.518 0,5.518c-3.675,0 -3.675,-5.518 0,-5.518Z" style="fill:#fff;fill-rule:nonzero;stroke-width:1.09px;stroke-linecap:butt;stroke-linejoin:miter;stroke:#0025ff;"/><path d="M73.728,144.834c3.675,0 3.675,5.518 0,5.518c-3.675,0 -3.675,-5.518 0,-5.518Z" style="fill:#fff;fill-rule:nonzero;stroke-width:1.09px;stroke-linecap:butt;stroke-linejoin:miter;stroke:#0025ff;"/></g><g id="v" transform="matrix(0.404599,0,0,0.404599,-49.423,40.845)"><path d="M257.763,163.337c17.92,0 24.5,-12.6 24.5,-28.7l0,-74.76l-5.32,0l0,74.06c0,16.8 -6.02,24.5 -19.04,24.5c-8.82,0 -14.98,-3.36 -20.16,-12.32l-4.34,2.66c5.18,9.38 13.44,14.56 24.36,14.56Z" style="fill:#00f;fill-rule:nonzero;"/><path d="M338.543,163.337c19.18,0 31.78,-11.34 31.78,-26.88c0,-15.68 -10.08,-21.7 -21.56,-26.88l-15.54,-7c-7.14,-3.22 -17.78,-7.84 -17.78,-20.58c0,-11.48 9.38,-19.04 23.52,-19.04c10.36,0 18.62,4.34 24.5,10.64l3.22,-3.5c-5.88,-6.44 -15.4,-12.04 -27.72,-12.04c-16.52,0 -28.84,9.8 -28.84,24.5c0,14.98 11.9,21 20.72,24.92l15.54,7c10.22,4.62 18.76,8.82 18.76,22.4c0,12.74 -10.36,21.56 -26.6,21.56c-12.18,0 -22.96,-5.46 -30.38,-14.14l-3.5,3.64c7.7,8.96 18.9,15.4 33.88,15.4Z" style="fill:#ff0004;fill-rule:nonzero;"/></g></g><path d="M180.092,39.397c1.61,2.59 3.08,5.81 3.71,7.98l1.96,-0.7c-0.63,-1.89 -1.96,-4.83 -3.43,-7.28l11.34,0l0,-2.03l-18.69,0c1.05,-2.03 2.03,-4.27 2.8,-6.44l-2.1,-0.49c-2.24,6.65 -6.16,12.67 -11.06,16.73c0.63,0.28 1.54,1.05 1.89,1.33c2.66,-2.45 5.18,-5.53 7.28,-9.1l6.3,0ZM168.612,93.367l2.03,0l0,-37.1l-2.03,0l0,37.1ZM171.972,48.637c2.8,2.87 5.95,6.72 7.35,9.24l1.75,-1.12c-1.47,-2.45 -4.69,-6.3 -7.49,-8.96l-1.61,0.84ZM205.432,63.057l0,8.19l-21,0l0,-8.19l21,0ZM184.432,82.097l0,-8.82l21,0l0,8.82l-21,0ZM207.462,84.127l0,-23.1l-25.06,0l0,27.16l2.03,0l0,-4.06l23.03,0ZM220.832,49.757l-36.82,0l0,2.03l34.79,0l0,37.8c0,1.19 -0.35,1.54 -1.68,1.61c-1.33,0.14 -5.74,0.14 -11.34,0c0.35,0.7 0.7,1.47 0.84,2.1c6.37,0 10.15,0.07 11.9,-0.35c1.75,-0.42 2.31,-1.33 2.31,-3.43l0,-39.76ZM201.162,37.297c1.05,-1.96 1.89,-4.2 2.59,-6.37l-2.1,-0.42c-1.89,5.88 -5.18,11.34 -9.24,15.05c0.56,0.35 1.47,1.05 1.82,1.4c2.1,-2.1 4.13,-4.76 5.81,-7.63l7.42,0c2.03,2.59 3.92,5.95 4.76,8.05l1.89,-0.77c-0.77,-1.96 -2.52,-4.83 -4.27,-7.28l13.65,0l0,-2.03l-22.33,0Z" style="fill:#333;fill-rule:nonzero;"/><path d="M262.202,32.257c-1.4,2.87 -3.99,7.21 -5.88,9.8l1.47,0.84c2.03,-2.52 4.41,-6.3 6.23,-9.59l-1.82,-1.05ZM244.002,42.127c-0.7,-2.59 -2.8,-6.51 -4.9,-9.38l-1.61,0.63c2.03,2.94 4.06,6.93 4.83,9.45l1.68,-0.7ZM249.532,60.047l2.03,0l0,-11.55c3.64,2.45 9.94,7.14 11.97,8.82l1.33,-1.75c-1.96,-1.54 -10.36,-7.21 -13.3,-9.03l0,-0.42l15.4,0l0,-2.03l-15.4,0l0,-13.72l-2.03,0l0,13.72l-15.61,0l0,2.03l14.91,0c-3.36,5.67 -9.38,11.27 -14.98,13.86c0.42,0.49 1.05,1.19 1.33,1.82c5.32,-2.8 10.78,-7.91 14.35,-13.23l0,11.48ZM260.802,68.867c-1.68,4.9 -4.48,8.89 -7.98,12.11c-3.29,-1.61 -6.93,-3.29 -10.22,-4.48c1.33,-2.17 2.8,-4.9 4.2,-7.63l14,0ZM261.642,86.017c-1.75,-1.26 -4.27,-2.66 -7.07,-4.13c3.92,-3.78 7.07,-8.54 8.89,-14.56l-1.19,-0.63l-0.49,0.14l-14,0c0.7,-1.61 1.4,-3.15 1.96,-4.62l-1.96,-0.35c-0.56,1.61 -1.33,3.22 -2.1,4.97l-10.22,0l0,2.03l9.17,0c-1.54,3.15 -3.36,6.23 -4.9,8.54c3.71,1.33 7.77,3.22 11.41,5.04c-4.97,4.13 -11.13,6.79 -17.29,8.33c0.42,0.35 0.91,1.12 1.12,1.68c6.44,-1.68 12.81,-4.62 18.06,-9.03c2.73,1.4 5.18,2.94 7,4.2l1.61,-1.61ZM273.752,46.677l14.49,0c-1.47,10.08 -3.85,18.62 -7.42,25.62c-3.36,-7.28 -5.67,-15.89 -7.21,-25.06l0.14,-0.56ZM295.452,46.677l0,-2.03l-21.14,0c1.12,-4.06 2.03,-8.4 2.8,-12.81l-2.1,-0.35c-1.89,11.97 -5.11,23.45 -10.36,30.87c0.56,0.28 1.54,0.91 1.89,1.19c2.31,-3.57 4.2,-7.91 5.88,-12.67c1.68,8.68 4.13,16.66 7.35,23.52c-4.2,7.49 -10.01,13.23 -18.13,17.43c0.49,0.49 1.19,1.26 1.47,1.68c7.7,-4.34 13.44,-9.94 17.71,-17.08c3.78,7.21 8.68,12.95 14.77,16.45c0.35,-0.56 0.98,-1.26 1.54,-1.68c-6.37,-3.36 -11.34,-9.17 -15.19,-16.73c4.06,-7.49 6.65,-16.59 8.47,-27.79l5.04,0Z" style="fill:#333;fill-rule:nonzero;"/><path d="M349.982,45.067c-2.52,-2.8 -7.63,-6.65 -12.18,-9.1l-1.26,1.4c4.41,2.59 9.59,6.51 12.04,9.31l1.4,-1.61ZM348.442,63.757c-2.8,-2.94 -8.61,-7.07 -13.65,-9.73l-1.26,1.33c5.04,2.66 10.78,6.86 13.65,9.87l1.26,-1.47ZM318.762,52.277l11.48,0l0,-2.03l-11.48,0l0,-13.86c3.64,-0.91 7,-1.89 9.52,-3.01l-1.68,-1.61c-4.83,2.31 -14.42,4.27 -22.12,5.6c0.21,0.49 0.56,1.19 0.7,1.68c3.64,-0.56 7.7,-1.26 11.55,-2.17l0,13.37l-13.02,0l0,2.03l12.67,0c-3.01,9.31 -8.89,20.02 -13.86,25.41c0.49,0.28 1.19,1.05 1.47,1.54c4.41,-4.97 9.45,-14.21 12.74,-22.75l0,36.82l2.03,0l0,-36.4c2.8,3.78 7.42,10.5 8.82,13.02l1.61,-1.68c-1.61,-2.24 -8.05,-11.13 -10.43,-14.07l0,-1.89ZM366.712,72.787l-0.35,-1.82l-9.45,1.4l0,-41.93l-2.03,0l0,42.21l-25.13,3.78l0.35,1.89l24.78,-3.78l0,18.83l2.03,0l0,-19.04l9.8,-1.54Z" style="fill:#333;fill-rule:nonzero;"/><path d="M395.342,64.037l-0.28,-1.96l-9.1,2.87l0,-17.5l8.68,0l0,-2.03l-8.68,0l0,-14.98l-2.03,0l0,14.98l-10.01,0l0,2.03l10.01,0l0,18.2c-4.13,1.33 -7.91,2.52 -10.85,3.29l0.91,2.17c2.94,-0.98 6.37,-2.1 9.94,-3.29l0,22.33c0,1.05 -0.42,1.4 -1.4,1.4c-0.84,0.07 -3.99,0.07 -7.84,0c0.35,0.63 0.7,1.47 0.84,1.96c4.69,0.07 7.14,0 8.47,-0.35c1.26,-0.42 1.96,-1.12 1.96,-3.08l0,-22.89l9.38,-3.15ZM428.662,59.277c-2.94,8.12 -7.91,14.77 -13.93,20.02c-5.53,-5.46 -9.73,-12.25 -12.46,-20.02l26.39,0ZM430.132,57.107l-0.49,0.14l-13.86,0l0,-12.74l17.99,0l0,-2.03l-17.99,0l0,-12.04l-2.03,0l0,12.04l-17.99,0l0,2.03l17.99,0l0,12.74l-16.38,0l0,2.03l2.73,0c2.94,8.33 7.35,15.61 13.02,21.35c-6.51,5.32 -14.07,9.03 -21.35,11.06c0.35,0.49 0.91,1.26 1.19,1.89c7.42,-2.31 14.98,-6.09 21.63,-11.48c5.6,5.18 12.32,9.1 20.02,11.48c0.42,-0.63 0.98,-1.33 1.54,-1.82c-7.77,-2.1 -14.49,-5.88 -20.02,-10.99c6.65,-5.88 12.18,-13.44 15.26,-22.89l-1.26,-0.77Z" style="fill:#333;fill-rule:nonzero;"/><path d="M172.315,147.751c4.864,0 6.65,-3.42 6.65,-7.79l0,-20.292l-1.444,0l0,20.102c0,4.56 -1.634,6.65 -5.168,6.65c-2.394,0 -4.066,-0.912 -5.472,-3.344l-1.178,0.722c1.406,2.546 3.648,3.952 6.612,3.952Z" style="fill:#aaa;fill-rule:nonzero;"/><path d="M187.021,147.257l1.368,0l0,-20.026l-1.368,0l0,20.026ZM187.743,122.177c0.76,0 1.482,-0.57 1.482,-1.444c0,-0.95 -0.722,-1.482 -1.482,-1.482c-0.798,0 -1.444,0.532 -1.444,1.482c0,0.874 0.646,1.444 1.444,1.444Z" style="fill:#aaa;fill-rule:nonzero;"/><path d="M200.625,147.751c2.66,0 5.168,-1.482 7.22,-3.154l0.114,0l0.19,2.66l1.14,0l0,-12.958c0,-4.066 -1.444,-7.562 -6.156,-7.562c-3.268,0 -6.042,1.672 -7.296,2.584l0.684,1.102c1.292,-1.026 3.686,-2.432 6.536,-2.432c4.142,0 4.978,3.534 4.864,6.764c-9.006,1.026 -13.072,3.116 -13.072,7.562c0,3.8 2.66,5.434 5.776,5.434ZM200.739,146.497c-2.432,0 -4.484,-1.14 -4.484,-4.218c0,-3.382 2.964,-5.396 11.666,-6.346l0,7.182c-2.622,2.242 -4.788,3.382 -7.182,3.382Z" style="fill:#aaa;fill-rule:nonzero;"/><path d="M216.699,147.257l1.368,0l0,-15.314c2.546,-2.622 4.37,-3.952 6.84,-3.952c3.42,0 4.826,2.166 4.826,6.574l0,12.692l1.368,0l0,-12.882c0,-5.168 -1.938,-7.638 -6.042,-7.638c-2.774,0 -4.864,1.596 -6.916,3.686l-0.076,0l-0.228,-3.192l-1.14,0l0,20.026Z" style="fill:#aaa;fill-rule:nonzero;"/><path d="M243.451,147.751c4.218,0 6.536,-2.584 6.536,-5.548c0,-3.914 -3.458,-4.902 -6.65,-6.118c-2.394,-0.912 -4.826,-1.824 -4.826,-4.218c0,-1.976 1.482,-3.876 4.788,-3.876c2.09,0 3.534,0.836 4.864,1.824l0.798,-1.026c-1.444,-1.216 -3.572,-2.052 -5.548,-2.052c-4.142,0 -6.308,2.432 -6.308,5.206c0,3.458 3.42,4.598 6.46,5.7c2.356,0.836 5.016,2.014 5.016,4.636c0,2.28 -1.71,4.218 -5.054,4.218c-2.964,0 -4.826,-1.14 -6.498,-2.584l-0.874,1.102c1.786,1.482 4.294,2.736 7.296,2.736Z" style="fill:#aaa;fill-rule:nonzero;"/><path d="M255.497,147.257l1.368,0l0,-15.314c2.546,-2.622 4.37,-3.952 6.84,-3.952c3.42,0 4.826,2.166 4.826,6.574l0,12.692l1.368,0l0,-12.882c0,-5.168 -1.938,-7.638 -6.042,-7.638c-2.774,0 -4.864,1.596 -6.992,3.762l0,-13.414l-1.368,0l0,30.172Z" style="fill:#aaa;fill-rule:nonzero;"/><path d="M283.047,147.751c2.774,0 4.864,-1.596 6.878,-3.914l0.076,0l0.152,3.42l1.178,0l0,-20.026l-1.368,0l0,14.972c-2.47,2.964 -4.332,4.294 -6.802,4.294c-3.382,0 -4.788,-2.128 -4.788,-6.536l0,-12.73l-1.368,0l0,12.882c0,5.206 1.938,7.638 6.042,7.638Z" style="fill:#aaa;fill-rule:nonzero;"/><path d="M299.273,147.257l1.368,0l0,-5.51l4.712,-5.586l6.916,11.096l1.482,0l-7.6,-12.122l6.46,-7.904l-1.596,0l-10.298,12.654l-0.076,0l0,-22.8l-1.368,0l0,30.172Z" style="fill:#aaa;fill-rule:nonzero;"/><path d="M325.227,147.751c2.964,0 4.674,-0.988 6.194,-1.9l-0.608,-1.178c-1.52,1.102 -3.23,1.824 -5.51,1.824c-4.712,0 -7.79,-3.876 -7.79,-9.158l14.668,0c0.076,-0.494 0.076,-0.95 0.076,-1.368c0,-5.928 -2.926,-9.234 -7.562,-9.234c-4.446,0 -8.626,4.028 -8.626,10.564c0,6.536 4.104,10.45 9.158,10.45ZM317.513,136.085c0.418,-5.054 3.61,-8.094 7.182,-8.094c3.762,0 6.232,2.66 6.232,8.094l-13.414,0Z" style="fill:#aaa;fill-rule:nonzero;"/><path d="M335.031,156.985c2.812,0 4.18,-1.71 4.18,-5.548l0,-24.206l-1.368,0l0,24.054c0,2.584 -0.418,4.522 -2.736,4.522c-0.836,0 -1.672,-0.266 -2.166,-0.418l-0.342,1.102c0.57,0.266 1.596,0.494 2.432,0.494ZM338.565,122.177c0.76,0 1.482,-0.57 1.482,-1.444c0,-0.95 -0.722,-1.482 -1.482,-1.482c-0.798,0 -1.444,0.532 -1.444,1.482c0,0.874 0.646,1.444 1.444,1.444Z" style="fill:#aaa;fill-rule:nonzero;"/><path d="M347.153,147.257l1.368,0l0,-20.026l-1.368,0l0,20.026ZM347.875,122.177c0.76,0 1.482,-0.57 1.482,-1.444c0,-0.95 -0.722,-1.482 -1.482,-1.482c-0.798,0 -1.444,0.532 -1.444,1.482c0,0.874 0.646,1.444 1.444,1.444Z" style="fill:#aaa;fill-rule:nonzero;"/><path d="M356.843,147.751c0.798,0 1.558,-0.608 1.558,-1.634c0,-1.102 -0.76,-1.71 -1.558,-1.71c-0.76,0 -1.52,0.608 -1.52,1.71c0,1.026 0.76,1.634 1.52,1.634Z" style="fill:#aaa;fill-rule:nonzero;"/><path d="M371.967,147.751c2.584,0 4.712,-1.178 6.384,-2.66l-0.798,-0.988c-1.406,1.33 -3.344,2.394 -5.548,2.394c-4.56,0 -7.562,-3.724 -7.562,-9.196c0,-5.51 3.344,-9.31 7.562,-9.31c2.052,0 3.648,0.988 4.978,2.242l0.874,-0.988c-1.33,-1.254 -3.116,-2.508 -5.852,-2.508c-4.826,0 -9.006,3.838 -9.006,10.564c0,6.612 3.876,10.45 8.968,10.45Z" style="fill:#aaa;fill-rule:nonzero;"/><path d="M389.903,147.751c4.788,0 8.892,-3.838 8.892,-10.45c0,-6.726 -4.104,-10.564 -8.892,-10.564c-4.788,0 -8.892,3.838 -8.892,10.564c0,6.612 4.104,10.45 8.892,10.45ZM389.903,146.497c-4.256,0 -7.448,-3.724 -7.448,-9.196c0,-5.51 3.192,-9.31 7.448,-9.31c4.256,0 7.486,3.8 7.486,9.31c0,5.472 -3.23,9.196 -7.486,9.196Z" style="fill:#aaa;fill-rule:nonzero;"/><path d="M405.027,147.257l1.368,0l0,-15.314c2.28,-2.622 4.37,-3.952 6.308,-3.952c3.23,0 4.712,2.166 4.712,6.574l0,12.692l1.33,0l0,-15.314c2.356,-2.622 4.332,-3.952 6.308,-3.952c3.23,0 4.75,2.166 4.75,6.574l0,12.692l1.33,0l0,-12.882c0,-5.168 -2.014,-7.638 -5.928,-7.638c-2.28,0 -4.522,1.596 -6.878,4.18c-0.646,-2.508 -2.242,-4.18 -5.51,-4.18c-2.204,0 -4.522,1.596 -6.346,3.686l-0.076,0l-0.228,-3.192l-1.14,0l0,20.026Z" style="fill:#aaa;fill-rule:nonzero;"/></svg>